<svg width="3046" height="1743" viewBox="0 0 3046 1743" fill="none" xmlns="http://www.w3.org/2000/svg">
<path d="M1777.08 696.433C1754.66 696.433 1735.75 691.378 1720.33 681.273C1705.2 671.168 1693.57 656.91 1685.44 638.504C1677.6 620.098 1673.11 598.624 1671.99 574.079C1671.71 567.582 1671.57 559.642 1671.57 550.261C1671.57 540.875 1671.71 532.935 1671.99 526.438C1673.11 501.535 1677.74 480.057 1685.86 462.012C1694.27 443.606 1706.04 429.349 1721.18 419.243C1736.59 409.137 1755.22 404.084 1777.08 404.084C1798.94 404.084 1817.44 409.137 1832.57 419.243C1847.99 429.349 1859.75 443.606 1867.88 462.012C1876.29 480.057 1881.05 501.535 1882.17 526.438C1882.46 532.935 1882.59 540.875 1882.59 550.261C1882.59 559.642 1882.46 567.582 1882.17 574.079C1881.05 598.624 1876.43 620.098 1868.3 638.504C1860.46 656.91 1848.83 671.168 1833.41 681.273C1818.28 691.378 1799.5 696.433 1777.08 696.433ZM1777.08 642.836C1791.94 642.836 1803.42 636.879 1811.55 624.97C1819.68 612.699 1824.16 594.833 1825.01 571.373C1825.28 565.961 1825.42 558.919 1825.42 550.261C1825.42 541.598 1825.28 534.561 1825.01 529.144C1824.16 506.045 1819.68 488.362 1811.55 476.087C1803.42 463.817 1791.94 457.681 1777.08 457.681C1762.23 457.681 1750.74 463.817 1742.61 476.087C1734.49 488.362 1730 506.045 1729.16 529.144C1728.88 534.561 1728.74 541.598 1728.74 550.261C1728.74 558.919 1728.88 565.961 1729.16 571.373C1730 594.833 1734.49 612.699 1742.61 624.97C1750.74 636.879 1762.23 642.836 1777.08 642.836ZM1939.26 691.021C1936.46 691.021 1934.07 689.757 1932.11 687.23C1930.15 684.703 1929.17 681.635 1929.17 678.027V422.492C1929.17 418.882 1930.15 415.814 1932.11 413.288C1934.07 410.761 1936.46 409.498 1939.26 409.498H1974.15C1977.23 409.498 1979.62 410.761 1981.29 413.288C1983.26 415.814 1984.24 418.882 1984.24 422.492V678.027C1984.24 681.635 1983.26 684.703 1981.29 687.23C1979.62 689.757 1977.23 691.021 1974.15 691.021H1939.26ZM1937.58 362.939C1934.49 362.939 1931.97 361.856 1930.01 359.691C1928.33 357.164 1927.49 353.916 1927.49 349.946V310.966C1927.49 307.357 1928.33 304.289 1930.01 301.762C1931.97 299.236 1934.49 297.973 1937.58 297.973H1975.83C1978.91 297.973 1981.44 299.236 1983.4 301.762C1985.36 304.289 1986.34 307.357 1986.34 310.966V349.946C1986.34 353.916 1985.36 357.164 1983.4 359.691C1981.44 361.856 1978.91 362.939 1975.83 362.939H1937.58Z" fill="white"/>
<path d="M0 3.75887e-07C0 3.75887e-07 605.477 0.00859761 774.651 3.75887e-07C943.822 -0.00859691 1201.85 147.459 1201.85 594.206C1201.85 1040.95 892.559 1142.18 892.559 1142.18L1289 1743H986.543L458.52 970.533V521.58L701.171 880.302C865.669 873.099 938.696 823.084 964.329 629.415C989.959 435.75 866.925 312.508 774.651 301.504C682.373 290.5 318.398 301.504 318.398 301.504V1743H0V3.75887e-07Z" fill="white"/>
<path d="M1518.83 1202.66C1492.77 1202.66 1470.63 1196.88 1452.41 1185.34C1434.48 1173.42 1420.75 1156.64 1411.22 1134.99C1401.69 1112.97 1396.37 1086.62 1395.24 1055.94C1394.96 1041.15 1394.82 1025.26 1394.82 1008.3C1394.82 991.34 1394.96 975.095 1395.24 959.578C1396.37 929.259 1401.69 903.092 1411.22 881.078C1421.03 859.06 1434.9 842.274 1452.83 830.727C1471.05 818.818 1493.05 812.861 1518.83 812.861C1537.89 812.861 1554.98 816.108 1570.12 822.605C1585.25 829.102 1598.14 838.126 1608.79 849.673C1619.44 860.864 1627.71 874.036 1633.59 889.196C1639.48 904.356 1642.56 920.779 1642.84 938.462C1643.12 941.713 1642.28 944.419 1640.32 946.584C1638.64 948.75 1636.53 949.831 1634.01 949.831H1594.08C1590.99 949.831 1588.47 948.929 1586.51 947.125C1584.55 944.959 1583.15 941.53 1582.31 936.836C1577.82 913.018 1570.12 896.778 1559.19 888.115C1548.26 879.453 1534.67 875.121 1518.41 875.121C1499.64 875.121 1484.64 881.98 1473.43 895.693C1462.22 909.049 1456.2 931.246 1455.36 962.284C1454.52 991.881 1454.52 1022.2 1455.36 1053.24C1456.2 1084.28 1462.22 1106.65 1473.43 1120.37C1484.64 1133.72 1499.64 1140.4 1518.41 1140.4C1534.67 1140.4 1548.26 1136.07 1559.19 1127.41C1570.12 1118.38 1577.82 1102.14 1582.31 1078.68C1583.15 1073.63 1584.55 1070.2 1586.51 1068.39C1588.47 1066.59 1590.99 1065.69 1594.08 1065.69H1634.01C1636.53 1065.69 1638.64 1066.77 1640.32 1068.94C1642.28 1071.1 1643.12 1073.81 1642.84 1077.06C1642.56 1094.74 1639.48 1111.17 1633.59 1126.32C1627.71 1141.48 1619.44 1154.84 1608.79 1166.39C1598.14 1177.58 1585.25 1186.42 1570.12 1192.91C1554.98 1199.41 1537.89 1202.66 1518.83 1202.66ZM1693.95 1197.25C1691.15 1197.25 1688.77 1195.98 1686.81 1193.45C1684.85 1190.93 1683.87 1187.86 1683.87 1184.25V825.855C1683.87 822.247 1684.85 819.175 1686.81 816.652C1688.77 814.125 1691.15 812.861 1693.95 812.861H1731.37C1734.45 812.861 1736.83 814.125 1738.51 816.652C1740.48 819.175 1741.46 822.247 1741.46 825.855V949.29C1749.02 937.743 1758.27 928.357 1769.2 921.136C1780.13 913.92 1793.58 910.312 1809.56 910.312C1826.65 910.312 1841.5 915.363 1854.11 925.468C1867.01 935.216 1876.95 949.112 1883.96 967.156C1890.97 985.2 1894.47 1006.86 1894.47 1032.12V1184.25C1894.47 1187.86 1893.49 1190.93 1891.53 1193.45C1889.56 1195.98 1887.18 1197.25 1884.38 1197.25H1846.55C1843.75 1197.25 1841.36 1195.98 1839.4 1193.45C1837.44 1190.93 1836.46 1187.86 1836.46 1184.25V1035.37C1836.46 1014.44 1832.4 998.016 1824.27 986.107C1816.42 974.193 1804.93 968.241 1789.8 968.241C1775.22 968.241 1763.45 974.193 1754.49 986.107C1745.8 998.016 1741.46 1014.44 1741.46 1035.37V1184.25C1741.46 1187.86 1740.48 1190.93 1738.51 1193.45C1736.83 1195.98 1734.45 1197.25 1731.37 1197.25H1693.95ZM2040.29 1202.66C2017.88 1202.66 1998.96 1197.61 1983.55 1187.5C1968.41 1177.4 1956.78 1163.14 1948.66 1144.73C1940.81 1126.32 1936.33 1104.85 1935.2 1080.31C1934.93 1073.81 1934.78 1065.87 1934.78 1056.48C1934.78 1047.1 1934.93 1039.16 1935.2 1032.66C1936.33 1007.76 1940.95 986.285 1949.08 968.241C1957.48 949.831 1969.26 935.577 1984.39 925.468C1999.8 915.363 2018.44 910.312 2040.29 910.312C2062.15 910.312 2080.65 915.363 2095.78 925.468C2111.2 935.577 2122.97 949.831 2131.1 968.241C2139.5 986.285 2144.27 1007.76 2145.39 1032.66C2145.67 1039.16 2145.81 1047.1 2145.81 1056.48C2145.81 1065.87 2145.67 1073.81 2145.39 1080.31C2144.27 1104.85 2139.64 1126.32 2131.51 1144.73C2123.67 1163.14 2112.04 1177.4 2096.62 1187.5C2081.49 1197.61 2062.71 1202.66 2040.29 1202.66ZM2040.29 1149.06C2055.15 1149.06 2066.64 1143.11 2074.76 1131.2C2082.89 1118.92 2087.38 1101.06 2088.22 1077.6C2088.5 1072.18 2088.64 1065.15 2088.64 1056.48C2088.64 1047.82 2088.5 1040.78 2088.22 1035.37C2087.38 1012.27 2082.89 994.586 2074.76 982.316C2066.64 970.045 2055.15 963.91 2040.29 963.91C2025.44 963.91 2013.95 970.045 2005.83 982.316C1997.7 994.586 1993.22 1012.27 1992.38 1035.37C1992.09 1040.78 1991.95 1047.82 1991.95 1056.48C1991.95 1065.15 1992.09 1072.18 1992.38 1077.6C1993.22 1101.06 1997.7 1118.92 2005.83 1131.2C2013.95 1143.11 2025.44 1149.06 2040.29 1149.06ZM2282.76 1202.66C2262.59 1202.66 2244.79 1197.79 2229.37 1188.04C2214.24 1178.3 2202.33 1164.22 2193.64 1145.81C2185.24 1127.05 2180.61 1104.49 2179.77 1078.14C2179.49 1072.73 2179.35 1065.69 2179.35 1057.03C2179.35 1048.01 2179.49 1040.61 2179.77 1034.83C2180.61 1008.48 2185.24 986.107 2193.64 967.696C2202.33 948.929 2214.24 934.675 2229.37 924.928C2244.79 915.184 2262.59 910.312 2282.76 910.312C2300.7 910.312 2315.97 913.559 2328.58 920.056C2341.2 926.553 2351.56 934.675 2359.69 944.419C2367.82 954.162 2373.84 964.45 2377.77 975.278C2381.97 985.745 2384.21 995.31 2384.49 1003.97C2384.77 1007.94 2383.79 1011.19 2381.55 1013.72C2379.59 1015.88 2377.2 1016.96 2374.4 1016.96H2337.41C2334.61 1016.96 2332.36 1016.06 2330.69 1014.26C2329.28 1012.45 2327.88 1009.75 2326.48 1006.14C2322.28 991.697 2316.67 981.592 2309.67 975.819C2302.94 969.683 2294.25 966.616 2283.6 966.616C2269.59 966.616 2258.38 972.389 2249.97 983.941C2241.85 995.127 2237.5 1012.99 2236.94 1037.54C2236.38 1051.25 2236.38 1063.88 2236.94 1075.44C2237.5 1100.34 2241.85 1118.38 2249.97 1129.57C2258.38 1140.76 2269.59 1146.35 2283.6 1146.35C2294.53 1146.35 2303.36 1143.47 2310.09 1137.69C2316.81 1131.56 2322.28 1121.27 2326.48 1106.84C2327.88 1103.22 2329.28 1100.52 2330.69 1098.71C2332.36 1096.91 2334.61 1096.01 2337.41 1096.01H2374.4C2377.2 1096.01 2379.59 1097.27 2381.55 1099.79C2383.79 1101.96 2384.77 1105.03 2384.49 1109C2384.21 1115.49 2382.81 1122.89 2380.29 1131.2C2378.04 1139.14 2374.26 1147.44 2368.94 1156.1C2363.89 1164.4 2357.45 1172.16 2349.6 1179.38C2341.75 1186.24 2332.23 1191.83 2321.02 1196.16C2310.09 1200.5 2297.33 1202.66 2282.76 1202.66ZM2434.22 1197.25C2431.42 1197.25 2429.03 1195.98 2427.07 1193.45C2425.11 1190.93 2424.13 1187.86 2424.13 1184.25V929.259C2424.13 925.289 2425.11 922.043 2427.07 919.515C2429.03 916.988 2431.42 915.724 2434.22 915.724H2468.27C2471.07 915.724 2473.45 916.988 2475.41 919.515C2477.66 922.043 2478.78 925.289 2478.78 929.259V951.456C2485.22 939.909 2493.49 931.063 2503.58 924.928C2513.95 918.792 2525.86 915.724 2539.31 915.724H2556.54C2559.63 915.724 2562.01 916.988 2563.69 919.515C2565.65 922.043 2566.63 925.111 2566.63 928.719V967.696C2566.63 971.309 2565.65 974.376 2563.69 976.899C2562.01 979.427 2559.63 980.69 2556.54 980.69H2523.76C2510.3 980.69 2499.79 985.562 2492.23 995.31C2484.94 1005.05 2481.3 1018.41 2481.3 1035.37V1184.25C2481.3 1187.86 2480.32 1190.93 2478.36 1193.45C2476.39 1195.98 2473.87 1197.25 2470.79 1197.25H2434.22ZM2689.03 1202.66C2666.61 1202.66 2647.69 1197.61 2632.28 1187.5C2617.14 1177.4 2605.51 1163.14 2597.38 1144.73C2589.54 1126.32 2585.05 1104.85 2583.93 1080.31C2583.65 1073.81 2583.51 1065.87 2583.51 1056.48C2583.51 1047.1 2583.65 1039.16 2583.93 1032.66C2585.05 1007.76 2589.68 986.285 2597.81 968.241C2606.21 949.831 2617.98 935.577 2633.12 925.468C2648.53 915.363 2667.17 910.312 2689.03 910.312C2710.88 910.312 2729.38 915.363 2744.51 925.468C2759.93 935.577 2771.7 949.831 2779.82 968.241C2788.23 986.285 2793 1007.76 2794.12 1032.66C2794.4 1039.16 2794.54 1047.1 2794.54 1056.48C2794.54 1065.87 2794.4 1073.81 2794.12 1080.31C2793 1104.85 2788.37 1126.32 2780.25 1144.73C2772.4 1163.14 2760.77 1177.4 2745.35 1187.5C2730.22 1197.61 2711.45 1202.66 2689.03 1202.66ZM2689.03 1149.06C2703.88 1149.06 2715.37 1143.11 2723.5 1131.2C2731.62 1118.92 2736.11 1101.06 2736.95 1077.6C2737.23 1072.18 2737.37 1065.15 2737.37 1056.48C2737.37 1047.82 2737.23 1040.78 2736.95 1035.37C2736.11 1012.27 2731.62 994.586 2723.5 982.316C2715.37 970.045 2703.88 963.91 2689.03 963.91C2674.17 963.91 2662.68 970.045 2654.56 982.316C2646.43 994.586 2641.94 1012.27 2641.1 1035.37C2640.82 1040.78 2640.68 1047.82 2640.68 1056.48C2640.68 1065.15 2640.82 1072.18 2641.1 1077.6C2641.94 1101.06 2646.43 1118.92 2654.56 1131.2C2662.68 1143.11 2674.17 1149.06 2689.03 1149.06ZM2847 1197.25C2844.2 1197.25 2841.81 1195.98 2839.85 1193.45C2837.89 1190.93 2836.91 1187.86 2836.91 1184.25V928.719C2836.91 925.111 2837.89 922.043 2839.85 919.515C2841.81 916.988 2844.2 915.724 2847 915.724H2881.47C2884.27 915.724 2886.65 916.988 2888.61 919.515C2890.58 922.043 2891.55 925.111 2891.55 928.719V950.916C2898.84 939.364 2908.09 929.799 2919.3 922.221C2930.79 914.282 2944.94 910.312 2961.76 910.312C2978.85 910.312 2993.71 915.363 3006.32 925.468C3018.93 935.216 3028.6 949.112 3035.32 967.156C3042.33 985.2 3045.83 1006.86 3045.83 1032.12V1184.25C3045.83 1187.86 3044.85 1190.93 3042.89 1193.45C3040.93 1195.98 3038.55 1197.25 3035.74 1197.25H2998.75C2995.95 1197.25 2993.57 1195.98 2991.6 1193.45C2989.64 1190.93 2988.66 1187.86 2988.66 1184.25V1035.37C2988.66 1014.44 2984.6 998.016 2976.47 986.107C2968.62 974.193 2957.14 968.241 2942 968.241C2927.43 968.241 2915.8 974.193 2907.11 986.107C2898.42 998.016 2894.08 1014.44 2894.08 1035.37V1184.25C2894.08 1187.86 2893.1 1190.93 2891.14 1193.45C2889.18 1195.98 2886.79 1197.25 2883.99 1197.25H2847Z" fill="white"/>
<path d="M1420.88 1470.14C1419.67 1470.14 1418.72 1469.82 1418.02 1469.17C1417.42 1468.4 1416.97 1467.17 1416.66 1465.49L1396.06 1340.77C1395.96 1340.25 1395.86 1339.8 1395.76 1339.41C1395.76 1338.9 1395.76 1338.57 1395.76 1338.45C1395.76 1337.41 1396.06 1336.51 1396.66 1335.74C1397.27 1334.96 1397.97 1334.57 1398.77 1334.57H1401.93C1403.84 1334.57 1404.94 1335.54 1405.24 1337.48L1422.83 1447.87L1441.48 1369.04C1441.78 1367.88 1442.28 1366.85 1442.98 1365.95C1443.78 1365.04 1444.84 1364.59 1446.14 1364.59H1449.45C1450.85 1364.59 1451.9 1365.04 1452.6 1365.95C1453.31 1366.85 1453.81 1367.88 1454.11 1369.04L1472.75 1447.87L1490.35 1337.48C1490.65 1335.54 1491.75 1334.57 1493.66 1334.57H1496.82C1497.62 1334.57 1498.32 1334.96 1498.92 1335.74C1499.52 1336.51 1499.82 1337.41 1499.82 1338.45C1499.82 1338.57 1499.77 1338.9 1499.67 1339.41C1499.67 1339.8 1499.62 1340.25 1499.52 1340.77L1478.92 1465.49C1478.62 1467.17 1478.12 1468.4 1477.42 1469.17C1476.82 1469.82 1475.91 1470.14 1474.71 1470.14H1472.46C1471.25 1470.14 1470.25 1469.75 1469.45 1468.97C1468.75 1468.2 1468.19 1467.04 1467.79 1465.49L1447.79 1383.76L1427.79 1465.49C1427.39 1467.04 1426.79 1468.2 1425.99 1468.97C1425.29 1469.75 1424.33 1470.14 1423.13 1470.14H1420.88ZM1546.39 1472.08C1536.66 1472.08 1528.94 1468.01 1523.23 1459.88C1517.51 1451.61 1514.26 1440.83 1513.45 1427.53C1513.35 1425.6 1513.3 1423.01 1513.3 1419.79C1513.3 1416.56 1513.35 1413.97 1513.45 1412.04C1513.95 1403.26 1515.56 1395.51 1518.26 1388.8C1520.97 1382.09 1524.68 1376.86 1529.39 1373.11C1534.2 1369.37 1539.87 1367.5 1546.39 1367.5C1553.4 1367.5 1559.37 1369.5 1564.28 1373.5C1569.19 1377.5 1572.95 1383.25 1575.56 1390.74C1578.26 1398.22 1579.62 1407.13 1579.62 1417.46V1420.37C1579.62 1421.66 1579.27 1422.69 1578.57 1423.46C1577.96 1424.24 1577.16 1424.63 1576.16 1424.63H1522.62C1522.62 1424.63 1522.62 1424.89 1522.62 1425.4C1522.62 1425.92 1522.62 1426.3 1522.62 1426.56C1522.83 1432.37 1523.88 1437.92 1525.78 1443.22C1527.69 1448.38 1530.39 1452.64 1533.9 1456C1537.41 1459.23 1541.57 1460.84 1546.39 1460.84C1550.69 1460.84 1554.25 1460 1557.06 1458.32C1559.97 1456.65 1562.27 1454.84 1563.98 1452.9C1565.68 1450.84 1566.78 1449.29 1567.29 1448.25C1568.19 1446.58 1568.89 1445.61 1569.39 1445.35C1569.89 1444.96 1570.69 1444.77 1571.8 1444.77H1574.2C1575.11 1444.77 1575.86 1445.16 1576.46 1445.93C1577.16 1446.58 1577.46 1447.48 1577.36 1448.64C1577.26 1450.45 1576.46 1452.71 1574.95 1455.42C1573.55 1458 1571.5 1460.58 1568.79 1463.17C1566.18 1465.75 1562.98 1467.88 1559.17 1469.56C1555.36 1471.24 1551.1 1472.08 1546.39 1472.08ZM1522.62 1413.78H1570.44V1413.01C1570.44 1406.55 1569.49 1400.74 1567.59 1395.58C1565.68 1390.41 1562.93 1386.35 1559.32 1383.38C1555.71 1380.28 1551.4 1378.73 1546.39 1378.73C1541.37 1378.73 1537.06 1380.28 1533.45 1383.38C1529.94 1386.35 1527.23 1390.41 1525.33 1395.58C1523.53 1400.74 1522.62 1406.55 1522.62 1413.01V1413.78ZM1635.54 1472.08C1629.33 1472.08 1624.16 1470.65 1620.05 1467.82C1616.04 1464.84 1612.79 1461.17 1610.28 1456.77V1465.88C1610.28 1467.17 1609.98 1468.2 1609.38 1468.97C1608.78 1469.75 1607.97 1470.14 1606.97 1470.14H1604.42C1603.41 1470.14 1602.61 1469.75 1602.01 1468.97C1601.41 1468.2 1601.11 1467.17 1601.11 1465.88V1336.89C1601.11 1335.6 1601.41 1334.57 1602.01 1333.8C1602.61 1333.02 1603.41 1332.64 1604.42 1332.64H1606.97C1607.97 1332.64 1608.78 1333.02 1609.38 1333.8C1609.98 1334.57 1610.28 1335.6 1610.28 1336.89V1382.8C1612.79 1378.53 1616.04 1374.92 1620.05 1371.95C1624.16 1368.98 1629.33 1367.5 1635.54 1367.5C1641.45 1367.5 1646.42 1368.85 1650.43 1371.56C1654.44 1374.27 1657.7 1377.89 1660.2 1382.41C1662.71 1386.93 1664.56 1391.96 1665.77 1397.51C1666.97 1403.06 1667.62 1408.68 1667.72 1414.36C1667.82 1416.3 1667.87 1418.11 1667.87 1419.79C1667.87 1421.46 1667.82 1423.27 1667.72 1425.21C1667.62 1430.89 1666.97 1436.51 1665.77 1442.06C1664.56 1447.61 1662.71 1452.64 1660.2 1457.16C1657.7 1461.68 1654.44 1465.3 1650.43 1468.01C1646.42 1470.72 1641.45 1472.08 1635.54 1472.08ZM1634.64 1460.84C1640.55 1460.84 1645.21 1459.17 1648.63 1455.81C1652.03 1452.45 1654.49 1448.06 1655.99 1442.64C1657.5 1437.22 1658.35 1431.4 1658.55 1425.21C1658.65 1421.6 1658.65 1417.97 1658.55 1414.36C1658.35 1408.17 1657.5 1402.36 1655.99 1396.93C1654.49 1391.51 1652.03 1387.12 1648.63 1383.76C1645.21 1380.4 1640.55 1378.73 1634.64 1378.73C1629.13 1378.73 1624.57 1380.4 1620.96 1383.76C1617.45 1387.12 1614.79 1391.32 1612.99 1396.35C1611.28 1401.39 1610.38 1406.49 1610.28 1411.65C1610.18 1413.59 1610.13 1416.1 1610.13 1419.2C1610.13 1422.3 1610.18 1424.82 1610.28 1426.76C1610.48 1432.05 1611.38 1437.34 1612.99 1442.64C1614.69 1447.8 1617.3 1452.13 1620.81 1455.61C1624.31 1459.1 1628.93 1460.84 1634.64 1460.84ZM1714.5 1472.08C1709.29 1472.08 1704.78 1471.17 1700.97 1469.36C1697.26 1467.55 1694.2 1465.42 1691.79 1462.97C1689.39 1460.39 1687.58 1457.87 1686.38 1455.42C1685.28 1452.97 1684.67 1451.09 1684.58 1449.8C1684.48 1448.38 1684.82 1447.35 1685.63 1446.7C1686.43 1445.93 1687.18 1445.54 1687.88 1445.54H1690.14C1690.74 1445.54 1691.24 1445.67 1691.64 1445.93C1692.14 1446.19 1692.75 1446.9 1693.45 1448.06C1694.75 1450.25 1696.25 1452.39 1697.96 1454.45C1699.66 1456.39 1701.82 1457.94 1704.43 1459.1C1707.13 1460.26 1710.49 1460.84 1714.5 1460.84C1720.51 1460.84 1725.48 1459.36 1729.39 1456.39C1733.3 1453.42 1735.25 1449.03 1735.25 1443.22C1735.25 1439.61 1734.45 1436.7 1732.85 1434.5C1731.34 1432.31 1728.73 1430.37 1725.03 1428.69C1721.32 1427.02 1716.3 1425.27 1709.99 1423.46C1703.67 1421.53 1698.81 1419.2 1695.4 1416.49C1692.1 1413.78 1689.84 1410.68 1688.64 1407.2C1687.43 1403.58 1686.83 1399.71 1686.83 1395.58C1686.83 1391.06 1687.83 1386.67 1689.84 1382.41C1691.85 1378.02 1694.8 1374.47 1698.71 1371.75C1702.72 1368.92 1707.73 1367.5 1713.75 1367.5C1718.66 1367.5 1722.82 1368.33 1726.23 1370.01C1729.74 1371.69 1732.6 1373.76 1734.8 1376.21C1737 1378.53 1738.61 1380.86 1739.61 1383.18C1740.72 1385.51 1741.32 1387.38 1741.42 1388.8C1741.52 1390.09 1741.22 1391.12 1740.52 1391.9C1739.82 1392.67 1739.01 1393.06 1738.11 1393.06H1735.85C1735.05 1393.06 1734.4 1392.87 1733.9 1392.48C1733.4 1391.96 1732.95 1391.32 1732.54 1390.54C1731.55 1388.48 1730.34 1386.54 1728.94 1384.73C1727.53 1382.92 1725.63 1381.51 1723.22 1380.47C1720.92 1379.31 1717.76 1378.73 1713.75 1378.73C1707.73 1378.73 1703.28 1380.34 1700.36 1383.57C1697.46 1386.67 1696 1390.67 1696 1395.58C1696 1398.42 1696.6 1400.93 1697.81 1403.13C1699.01 1405.19 1701.27 1407.13 1704.58 1408.94C1707.88 1410.61 1712.7 1412.43 1719.01 1414.36C1725.43 1416.17 1730.49 1418.43 1734.2 1421.14C1737.91 1423.73 1740.52 1426.82 1742.02 1430.44C1743.62 1434.05 1744.42 1438.31 1744.42 1443.22C1744.42 1448.38 1743.27 1453.16 1740.97 1457.55C1738.76 1461.94 1735.4 1465.49 1730.89 1468.2C1726.48 1470.79 1721.02 1472.08 1714.5 1472.08ZM1768.51 1470.14C1767.51 1470.14 1766.71 1469.75 1766.11 1468.97C1765.5 1468.2 1765.21 1467.17 1765.21 1465.88V1373.69C1765.21 1372.4 1765.5 1371.37 1766.11 1370.6C1766.71 1369.82 1767.51 1369.43 1768.51 1369.43H1771.07C1772.07 1369.43 1772.87 1369.82 1773.48 1370.6C1774.08 1371.37 1774.38 1372.4 1774.38 1373.69V1465.88C1774.38 1467.17 1774.08 1468.2 1773.48 1468.97C1772.87 1469.75 1772.07 1470.14 1771.07 1470.14H1768.51ZM1766.86 1348.71C1765.86 1348.71 1765.05 1348.32 1764.45 1347.55C1763.85 1346.77 1763.55 1345.74 1763.55 1344.45V1337.09C1763.55 1335.8 1763.85 1334.76 1764.45 1333.99C1765.05 1333.09 1765.86 1332.64 1766.86 1332.64H1772.57C1773.58 1332.64 1774.38 1333.09 1774.98 1333.99C1775.68 1334.76 1776.03 1335.8 1776.03 1337.09V1344.45C1776.03 1345.74 1775.68 1346.77 1774.98 1347.55C1774.38 1348.32 1773.58 1348.71 1772.57 1348.71H1766.86ZM1826.51 1470.14C1821.3 1470.14 1817.18 1468.72 1814.18 1465.88C1811.17 1463.04 1809.06 1459.17 1807.86 1454.26C1806.66 1449.35 1806.06 1443.87 1806.06 1437.8V1380.67H1794.33C1793.32 1380.67 1792.52 1380.28 1791.92 1379.5C1791.32 1378.73 1791.02 1377.69 1791.02 1376.4V1373.69C1791.02 1372.4 1791.32 1371.37 1791.92 1370.6C1792.52 1369.82 1793.32 1369.43 1794.33 1369.43H1806.06V1336.89C1806.06 1335.6 1806.36 1334.57 1806.96 1333.8C1807.56 1333.02 1808.36 1332.64 1809.36 1332.64H1811.92C1812.92 1332.64 1813.73 1333.02 1814.33 1333.8C1814.93 1334.57 1815.23 1335.6 1815.23 1336.89V1369.43H1833.88C1834.87 1369.43 1835.68 1369.82 1836.28 1370.6C1836.88 1371.37 1837.18 1372.4 1837.18 1373.69V1376.4C1837.18 1377.69 1836.88 1378.73 1836.28 1379.5C1835.68 1380.28 1834.87 1380.67 1833.88 1380.67H1815.23V1437.02C1815.23 1443.87 1816.08 1449.22 1817.78 1453.1C1819.59 1456.97 1822.75 1458.9 1827.26 1458.9H1835.38C1836.38 1458.9 1837.18 1459.29 1837.78 1460.07C1838.39 1460.84 1838.69 1461.88 1838.69 1463.17V1465.88C1838.69 1467.17 1838.39 1468.2 1837.78 1468.97C1837.18 1469.75 1836.38 1470.14 1835.38 1470.14H1826.51ZM1884.76 1472.08C1875.03 1472.08 1867.32 1468.01 1861.6 1459.88C1855.89 1451.61 1852.63 1440.83 1851.83 1427.53C1851.73 1425.6 1851.68 1423.01 1851.68 1419.79C1851.68 1416.56 1851.73 1413.97 1851.83 1412.04C1852.33 1403.26 1853.93 1395.51 1856.64 1388.8C1859.35 1382.09 1863.06 1376.86 1867.77 1373.11C1872.58 1369.37 1878.24 1367.5 1884.76 1367.5C1891.78 1367.5 1897.74 1369.5 1902.66 1373.5C1907.57 1377.5 1911.32 1383.25 1913.93 1390.74C1916.64 1398.22 1917.99 1407.13 1917.99 1417.46V1420.37C1917.99 1421.66 1917.64 1422.69 1916.94 1423.46C1916.34 1424.24 1915.53 1424.63 1914.53 1424.63H1861C1861 1424.63 1861 1424.89 1861 1425.4C1861 1425.92 1861 1426.3 1861 1426.56C1861.2 1432.37 1862.25 1437.92 1864.16 1443.22C1866.06 1448.38 1868.77 1452.64 1872.28 1456C1875.79 1459.23 1879.95 1460.84 1884.76 1460.84C1889.07 1460.84 1892.63 1460 1895.44 1458.32C1898.34 1456.65 1900.65 1454.84 1902.35 1452.9C1904.06 1450.84 1905.16 1449.29 1905.66 1448.25C1906.56 1446.58 1907.26 1445.61 1907.77 1445.35C1908.27 1444.96 1909.07 1444.77 1910.17 1444.77H1912.58C1913.48 1444.77 1914.23 1445.16 1914.83 1445.93C1915.53 1446.58 1915.84 1447.48 1915.74 1448.64C1915.63 1450.45 1914.83 1452.71 1913.33 1455.42C1911.93 1458 1909.87 1460.58 1907.16 1463.17C1904.56 1465.75 1901.35 1467.88 1897.54 1469.56C1893.73 1471.24 1889.47 1472.08 1884.76 1472.08ZM1861 1413.78H1908.82V1413.01C1908.82 1406.55 1907.87 1400.74 1905.96 1395.58C1904.06 1390.41 1901.3 1386.35 1897.69 1383.38C1894.08 1380.28 1889.77 1378.73 1884.76 1378.73C1879.75 1378.73 1875.44 1380.28 1871.83 1383.38C1868.32 1386.35 1865.61 1390.41 1863.71 1395.58C1861.9 1400.74 1861 1406.55 1861 1413.01V1413.78ZM1964.14 1472.08C1958.93 1472.08 1954.42 1471.17 1950.61 1469.36C1946.9 1467.55 1943.84 1465.42 1941.44 1462.97C1939.03 1460.39 1937.22 1457.87 1936.02 1455.42C1934.92 1452.97 1934.31 1451.09 1934.21 1449.8C1934.12 1448.38 1934.47 1447.35 1935.27 1446.7C1936.07 1445.93 1936.82 1445.54 1937.52 1445.54H1939.78C1940.38 1445.54 1940.88 1445.67 1941.28 1445.93C1941.79 1446.19 1942.39 1446.9 1943.09 1448.06C1944.39 1450.25 1945.89 1452.39 1947.6 1454.45C1949.3 1456.39 1951.46 1457.94 1954.07 1459.1C1956.77 1460.26 1960.13 1460.84 1964.14 1460.84C1970.15 1460.84 1975.12 1459.36 1979.03 1456.39C1982.94 1453.42 1984.89 1449.03 1984.89 1443.22C1984.89 1439.61 1984.09 1436.7 1982.49 1434.5C1980.98 1432.31 1978.37 1430.37 1974.67 1428.69C1970.96 1427.02 1965.95 1425.27 1959.63 1423.46C1953.31 1421.53 1948.45 1419.2 1945.04 1416.49C1941.73 1413.78 1939.48 1410.68 1938.28 1407.2C1937.07 1403.58 1936.47 1399.71 1936.47 1395.58C1936.47 1391.06 1937.47 1386.67 1939.48 1382.41C1941.49 1378.02 1944.44 1374.47 1948.35 1371.75C1952.36 1368.92 1957.37 1367.5 1963.39 1367.5C1968.3 1367.5 1972.46 1368.33 1975.87 1370.01C1979.38 1371.69 1982.24 1373.76 1984.44 1376.21C1986.65 1378.53 1988.25 1380.86 1989.25 1383.18C1990.36 1385.51 1990.96 1387.38 1991.06 1388.8C1991.16 1390.09 1990.85 1391.12 1990.15 1391.9C1989.45 1392.67 1988.65 1393.06 1987.75 1393.06H1985.5C1984.69 1393.06 1984.04 1392.87 1983.54 1392.48C1983.04 1391.96 1982.59 1391.32 1982.19 1390.54C1981.18 1388.48 1979.98 1386.54 1978.58 1384.73C1977.17 1382.92 1975.27 1381.51 1972.86 1380.47C1970.56 1379.31 1967.4 1378.73 1963.39 1378.73C1957.37 1378.73 1952.91 1380.34 1950 1383.57C1947.1 1386.67 1945.64 1390.67 1945.64 1395.58C1945.64 1398.42 1946.25 1400.93 1947.45 1403.13C1948.65 1405.19 1950.91 1407.13 1954.22 1408.94C1957.52 1410.61 1962.34 1412.43 1968.65 1414.36C1975.07 1416.17 1980.13 1418.43 1983.84 1421.14C1987.55 1423.73 1990.15 1426.82 1991.66 1430.44C1993.26 1434.05 1994.06 1438.31 1994.06 1443.22C1994.06 1448.38 1992.91 1453.16 1990.61 1457.55C1988.4 1461.94 1985.04 1465.49 1980.53 1468.2C1976.12 1470.79 1970.66 1472.08 1964.14 1472.08ZM2062.86 1470.14C2061.85 1470.14 2061.05 1469.75 2060.45 1468.97C2059.85 1468.2 2059.55 1467.17 2059.55 1465.88V1380.67H2046.17C2045.16 1380.67 2044.36 1380.28 2043.76 1379.5C2043.16 1378.73 2042.86 1377.69 2042.86 1376.4V1373.69C2042.86 1372.4 2043.16 1371.37 2043.76 1370.6C2044.36 1369.82 2045.16 1369.43 2046.17 1369.43H2059.55V1358.39C2059.55 1352.58 2060.15 1347.29 2061.35 1342.51C2062.66 1337.74 2064.91 1333.92 2068.12 1331.09C2071.43 1328.24 2076.14 1326.82 2082.26 1326.82H2090.08C2091.08 1326.82 2091.88 1327.21 2092.48 1327.99C2093.09 1328.76 2093.38 1329.8 2093.38 1331.09V1333.8C2093.38 1335.09 2093.09 1336.12 2092.48 1336.89C2091.88 1337.67 2091.08 1338.06 2090.08 1338.06H2082.26C2076.94 1338.06 2073.33 1339.93 2071.43 1343.67C2069.63 1347.29 2068.72 1352.52 2068.72 1359.36V1369.43H2088.57C2089.57 1369.43 2090.38 1369.82 2090.98 1370.6C2091.58 1371.37 2091.88 1372.4 2091.88 1373.69V1376.4C2091.88 1377.69 2091.58 1378.73 2090.98 1379.5C2090.38 1380.28 2089.57 1380.67 2088.57 1380.67H2068.72V1465.88C2068.72 1467.17 2068.42 1468.2 2067.82 1468.97C2067.22 1469.75 2066.42 1470.14 2065.42 1470.14H2062.86ZM2136.03 1472.08C2128.82 1472.08 2122.75 1470.14 2117.84 1466.26C2113.03 1462.39 2109.31 1457.1 2106.71 1450.39C2104.2 1443.67 2102.85 1436.18 2102.65 1427.92C2102.55 1425.98 2102.5 1423.27 2102.5 1419.79C2102.5 1416.3 2102.55 1413.59 2102.65 1411.65C2102.85 1403.26 2104.2 1395.77 2106.71 1389.18C2109.31 1382.47 2113.03 1377.18 2117.84 1373.31C2122.75 1369.43 2128.82 1367.5 2136.03 1367.5C2143.25 1367.5 2149.27 1369.43 2154.08 1373.31C2158.99 1377.18 2162.7 1382.47 2165.21 1389.18C2167.81 1395.77 2169.22 1403.26 2169.42 1411.65C2169.51 1413.59 2169.57 1416.3 2169.57 1419.79C2169.57 1423.27 2169.51 1425.98 2169.42 1427.92C2169.22 1436.18 2167.81 1443.67 2165.21 1450.39C2162.7 1457.1 2158.99 1462.39 2154.08 1466.26C2149.27 1470.14 2143.25 1472.08 2136.03 1472.08ZM2136.03 1460.84C2143.05 1460.84 2148.76 1457.94 2153.18 1452.13C2157.58 1446.32 2159.94 1437.92 2160.24 1426.95C2160.34 1425.02 2160.39 1422.62 2160.39 1419.79C2160.39 1416.95 2160.34 1414.56 2160.24 1412.62C2159.94 1401.52 2157.58 1393.12 2153.18 1387.44C2148.76 1381.63 2143.05 1378.73 2136.03 1378.73C2129.01 1378.73 2123.3 1381.63 2118.89 1387.44C2114.48 1393.12 2112.12 1401.52 2111.82 1412.62C2111.72 1414.56 2111.67 1416.95 2111.67 1419.79C2111.67 1422.62 2111.72 1425.02 2111.82 1426.95C2112.12 1437.92 2114.48 1446.32 2118.89 1452.13C2123.3 1457.94 2129.01 1460.84 2136.03 1460.84ZM2194.92 1470.14C2193.92 1470.14 2193.12 1469.75 2192.51 1468.97C2191.91 1468.2 2191.62 1467.17 2191.62 1465.88V1373.89C2191.62 1372.6 2191.91 1371.56 2192.51 1370.79C2193.12 1369.89 2193.92 1369.43 2194.92 1369.43H2197.33C2198.33 1369.43 2199.13 1369.89 2199.74 1370.79C2200.44 1371.56 2200.79 1372.6 2200.79 1373.89V1382.8C2202.59 1378.27 2205.19 1374.92 2208.61 1372.73C2212.01 1370.53 2216.23 1369.43 2221.24 1369.43H2226.8C2227.8 1369.43 2228.61 1369.82 2229.21 1370.6C2229.81 1371.37 2230.11 1372.4 2230.11 1373.69V1376.4C2230.11 1377.69 2229.81 1378.73 2229.21 1379.5C2228.61 1380.28 2227.8 1380.67 2226.8 1380.67H2220.34C2214.32 1380.67 2209.56 1382.92 2206.05 1387.44C2202.54 1391.96 2200.79 1398.1 2200.79 1405.84V1465.88C2200.79 1467.17 2200.44 1468.2 2199.74 1468.97C2199.13 1469.75 2198.33 1470.14 2197.33 1470.14H2194.92ZM2287.26 1470.14C2286.26 1470.14 2285.45 1469.75 2284.85 1468.97C2284.25 1468.2 2283.95 1467.17 2283.95 1465.88V1339.03C2283.95 1337.6 2284.25 1336.51 2284.85 1335.74C2285.45 1334.96 2286.26 1334.57 2287.26 1334.57H2326.51C2333.53 1334.57 2339.24 1336.19 2343.65 1339.41C2348.16 1342.64 2351.47 1346.9 2353.58 1352.19C2355.68 1357.36 2356.73 1363.04 2356.73 1369.24C2356.73 1374.79 2356.03 1379.57 2354.63 1383.57C2353.33 1387.44 2351.62 1390.61 2349.51 1393.06C2347.51 1395.51 2345.5 1397.39 2343.5 1398.67C2347.51 1401.26 2351.07 1405.39 2354.18 1411.07C2357.28 1416.75 2358.84 1423.66 2358.84 1431.79C2358.84 1438.25 2357.63 1444.45 2355.23 1450.39C2352.92 1456.19 2349.41 1460.97 2344.7 1464.72C2340.09 1468.33 2334.38 1470.14 2327.56 1470.14H2287.26ZM2293.42 1458.52H2326.06C2333.48 1458.52 2339.19 1456 2343.2 1450.97C2347.31 1445.93 2349.36 1439.54 2349.36 1431.79C2349.36 1423.92 2347.31 1417.53 2343.2 1412.62C2339.19 1407.59 2333.48 1405.07 2326.06 1405.07H2293.42V1458.52ZM2293.42 1393.45H2324.55C2331.97 1393.45 2337.58 1391.32 2341.39 1387.05C2345.31 1382.8 2347.26 1376.86 2347.26 1369.24C2347.26 1361.62 2345.31 1355.88 2341.39 1352C2337.58 1348.13 2331.97 1346.19 2324.55 1346.19H2293.42V1393.45ZM2411.07 1472.08C2404.25 1472.08 2398.58 1470.2 2394.07 1466.46C2389.66 1462.59 2386.36 1457.36 2384.15 1450.77C2382.05 1444.19 2380.99 1436.83 2380.99 1428.69V1373.69C2380.99 1372.4 2381.29 1371.37 2381.89 1370.6C2382.49 1369.82 2383.3 1369.43 2384.3 1369.43H2386.86C2387.86 1369.43 2388.66 1369.82 2389.26 1370.6C2389.86 1371.37 2390.16 1372.4 2390.16 1373.69V1427.73C2390.16 1449.8 2397.64 1460.84 2412.57 1460.84C2419.69 1460.84 2425.4 1457.94 2429.71 1452.13C2434.03 1446.19 2436.18 1438.05 2436.18 1427.73V1373.69C2436.18 1372.4 2436.48 1371.37 2437.08 1370.6C2437.68 1369.82 2438.49 1369.43 2439.49 1369.43H2442.04C2443.05 1369.43 2443.85 1369.82 2444.45 1370.6C2445.05 1371.37 2445.35 1372.4 2445.35 1373.69V1465.88C2445.35 1467.17 2445.05 1468.2 2444.45 1468.97C2443.85 1469.75 2443.05 1470.14 2442.04 1470.14H2439.49C2438.49 1470.14 2437.68 1469.75 2437.08 1468.97C2436.48 1468.2 2436.18 1467.17 2436.18 1465.88V1456.77C2433.47 1461.3 2430.21 1464.97 2426.4 1467.82C2422.7 1470.65 2417.58 1472.08 2411.07 1472.08ZM2496.02 1472.08C2490.81 1472.08 2486.3 1471.17 2482.49 1469.36C2478.78 1467.55 2475.72 1465.42 2473.31 1462.97C2470.91 1460.39 2469.1 1457.87 2467.9 1455.42C2466.8 1452.97 2466.2 1451.09 2466.1 1449.8C2466 1448.38 2466.35 1447.35 2467.15 1446.7C2467.95 1445.93 2468.71 1445.54 2469.41 1445.54H2471.66C2472.26 1445.54 2472.76 1445.67 2473.17 1445.93C2473.67 1446.19 2474.27 1446.9 2474.97 1448.06C2476.27 1450.25 2477.78 1452.39 2479.48 1454.45C2481.19 1456.39 2483.34 1457.94 2485.94 1459.1C2488.65 1460.26 2492.01 1460.84 2496.02 1460.84C2502.04 1460.84 2507 1459.36 2510.91 1456.39C2514.82 1453.42 2516.77 1449.03 2516.77 1443.22C2516.77 1439.61 2515.97 1436.7 2514.37 1434.5C2512.86 1432.31 2510.26 1430.37 2506.55 1428.69C2502.84 1427.02 2497.83 1425.27 2491.51 1423.46C2485.19 1421.53 2480.33 1419.2 2476.93 1416.49C2473.62 1413.78 2471.36 1410.68 2470.16 1407.2C2468.95 1403.58 2468.35 1399.71 2468.35 1395.58C2468.35 1391.06 2469.36 1386.67 2471.36 1382.41C2473.36 1378.02 2476.32 1374.47 2480.23 1371.75C2484.25 1368.92 2489.25 1367.5 2495.27 1367.5C2500.18 1367.5 2504.34 1368.33 2507.75 1370.01C2511.26 1371.69 2514.12 1373.76 2516.32 1376.21C2518.53 1378.53 2520.13 1380.86 2521.13 1383.18C2522.24 1385.51 2522.84 1387.38 2522.94 1388.8C2523.04 1390.09 2522.74 1391.12 2522.04 1391.9C2521.34 1392.67 2520.53 1393.06 2519.63 1393.06H2517.37C2516.57 1393.06 2515.92 1392.87 2515.42 1392.48C2514.92 1391.96 2514.47 1391.32 2514.07 1390.54C2513.06 1388.48 2511.86 1386.54 2510.46 1384.73C2509.06 1382.92 2507.15 1381.51 2504.74 1380.47C2502.44 1379.31 2499.28 1378.73 2495.27 1378.73C2489.25 1378.73 2484.79 1380.34 2481.89 1383.57C2478.98 1386.67 2477.53 1390.67 2477.53 1395.58C2477.53 1398.42 2478.13 1400.93 2479.33 1403.13C2480.53 1405.19 2482.79 1407.13 2486.1 1408.94C2489.41 1410.61 2494.22 1412.43 2500.53 1414.36C2506.95 1416.17 2512.01 1418.43 2515.72 1421.14C2519.43 1423.73 2522.04 1426.82 2523.54 1430.44C2525.15 1434.05 2525.95 1438.31 2525.95 1443.22C2525.95 1448.38 2524.79 1453.16 2522.49 1457.55C2520.28 1461.94 2516.92 1465.49 2512.41 1468.2C2508 1470.79 2502.54 1472.08 2496.02 1472.08ZM2550.04 1470.14C2549.03 1470.14 2548.23 1469.75 2547.63 1468.97C2547.03 1468.2 2546.73 1467.17 2546.73 1465.88V1373.69C2546.73 1372.4 2547.03 1371.37 2547.63 1370.6C2548.23 1369.82 2549.03 1369.43 2550.04 1369.43H2552.59C2553.59 1369.43 2554.4 1369.82 2555 1370.6C2555.6 1371.37 2555.9 1372.4 2555.9 1373.69V1465.88C2555.9 1467.17 2555.6 1468.2 2555 1468.97C2554.4 1469.75 2553.59 1470.14 2552.59 1470.14H2550.04ZM2548.38 1348.71C2547.38 1348.71 2546.58 1348.32 2545.98 1347.55C2545.38 1346.77 2545.07 1345.74 2545.07 1344.45V1337.09C2545.07 1335.8 2545.38 1334.76 2545.98 1333.99C2546.58 1333.09 2547.38 1332.64 2548.38 1332.64H2554.1C2555.1 1332.64 2555.9 1333.09 2556.5 1333.99C2557.2 1334.76 2557.55 1335.8 2557.55 1337.09V1344.45C2557.55 1345.74 2557.2 1346.77 2556.5 1347.55C2555.9 1348.32 2555.1 1348.71 2554.1 1348.71H2548.38ZM2585.02 1470.14C2584.02 1470.14 2583.22 1469.75 2582.62 1468.97C2582.02 1468.2 2581.71 1467.17 2581.71 1465.88V1373.69C2581.71 1372.4 2582.02 1371.37 2582.62 1370.6C2583.22 1369.82 2584.02 1369.43 2585.02 1369.43H2587.58C2588.58 1369.43 2589.38 1369.82 2589.98 1370.6C2590.59 1371.37 2590.89 1372.4 2590.89 1373.69V1382.8C2593.59 1378.27 2596.85 1374.6 2600.66 1371.75C2604.57 1368.92 2609.73 1367.5 2616.15 1367.5C2622.97 1367.5 2628.63 1369.43 2633.14 1373.31C2637.75 1377.05 2641.16 1382.21 2643.37 1388.8C2645.67 1395.25 2646.83 1402.61 2646.83 1410.88V1465.88C2646.83 1467.17 2646.52 1468.2 2645.92 1468.97C2645.32 1469.75 2644.52 1470.14 2643.52 1470.14H2640.96C2639.96 1470.14 2639.16 1469.75 2638.56 1468.97C2637.96 1468.2 2637.65 1467.17 2637.65 1465.88V1411.84C2637.65 1401.52 2635.7 1393.45 2631.79 1387.64C2627.88 1381.7 2622.17 1378.73 2614.65 1378.73C2607.53 1378.73 2601.76 1381.7 2597.35 1387.64C2593.04 1393.45 2590.89 1401.52 2590.89 1411.84V1465.88C2590.89 1467.17 2590.59 1468.2 2589.98 1468.97C2589.38 1469.75 2588.58 1470.14 2587.58 1470.14H2585.02ZM2700.94 1472.08C2691.21 1472.08 2683.5 1468.01 2677.78 1459.88C2672.07 1451.61 2668.81 1440.83 2668.01 1427.53C2667.9 1425.6 2667.86 1423.01 2667.86 1419.79C2667.86 1416.56 2667.9 1413.97 2668.01 1412.04C2668.51 1403.26 2670.11 1395.51 2672.82 1388.8C2675.53 1382.09 2679.23 1376.86 2683.94 1373.11C2688.76 1369.37 2694.42 1367.5 2700.94 1367.5C2707.95 1367.5 2713.92 1369.5 2718.83 1373.5C2723.74 1377.5 2727.5 1383.25 2730.11 1390.74C2732.82 1398.22 2734.17 1407.13 2734.17 1417.46V1420.37C2734.17 1421.66 2733.82 1422.69 2733.12 1423.46C2732.52 1424.24 2731.71 1424.63 2730.71 1424.63H2677.18C2677.18 1424.63 2677.18 1424.89 2677.18 1425.4C2677.18 1425.92 2677.18 1426.3 2677.18 1426.56C2677.38 1432.37 2678.43 1437.92 2680.34 1443.22C2682.24 1448.38 2684.95 1452.64 2688.46 1456C2691.97 1459.23 2696.13 1460.84 2700.94 1460.84C2705.25 1460.84 2708.81 1460 2711.61 1458.32C2714.52 1456.65 2716.83 1454.84 2718.53 1452.9C2720.24 1450.84 2721.34 1449.29 2721.84 1448.25C2722.74 1446.58 2723.44 1445.61 2723.95 1445.35C2724.44 1444.96 2725.25 1444.77 2726.35 1444.77H2728.76C2729.66 1444.77 2730.41 1445.16 2731.01 1445.93C2731.71 1446.58 2732.01 1447.48 2731.92 1448.64C2731.81 1450.45 2731.01 1452.71 2729.51 1455.42C2728.1 1458 2726.05 1460.58 2723.34 1463.17C2720.74 1465.75 2717.53 1467.88 2713.72 1469.56C2709.91 1471.24 2705.65 1472.08 2700.94 1472.08ZM2677.18 1413.78H2725V1413.01C2725 1406.55 2724.05 1400.74 2722.14 1395.58C2720.24 1390.41 2717.48 1386.35 2713.87 1383.38C2710.26 1380.28 2705.95 1378.73 2700.94 1378.73C2695.92 1378.73 2691.61 1380.28 2688.01 1383.38C2684.5 1386.35 2681.79 1390.41 2679.89 1395.58C2678.08 1400.74 2677.18 1406.55 2677.18 1413.01V1413.78ZM2780.32 1472.08C2775.11 1472.08 2770.6 1471.17 2766.78 1469.36C2763.08 1467.55 2760.02 1465.42 2757.61 1462.97C2755.21 1460.39 2753.4 1457.87 2752.2 1455.42C2751.1 1452.97 2750.5 1451.09 2750.39 1449.8C2750.29 1448.38 2750.65 1447.35 2751.45 1446.7C2752.25 1445.93 2753 1445.54 2753.7 1445.54H2755.96C2756.56 1445.54 2757.06 1445.67 2757.46 1445.93C2757.96 1446.19 2758.56 1446.9 2759.27 1448.06C2760.57 1450.25 2762.08 1452.39 2763.78 1454.45C2765.48 1456.39 2767.64 1457.94 2770.25 1459.1C2772.95 1460.26 2776.31 1460.84 2780.32 1460.84C2786.33 1460.84 2791.3 1459.36 2795.21 1456.39C2799.12 1453.42 2801.07 1449.03 2801.07 1443.22C2801.07 1439.61 2800.27 1436.7 2798.67 1434.5C2797.16 1432.31 2794.56 1430.37 2790.85 1428.69C2787.14 1427.02 2782.12 1425.27 2775.81 1423.46C2769.49 1421.53 2764.63 1419.2 2761.22 1416.49C2757.91 1413.78 2755.66 1410.68 2754.46 1407.2C2753.25 1403.58 2752.65 1399.71 2752.65 1395.58C2752.65 1391.06 2753.66 1386.67 2755.66 1382.41C2757.67 1378.02 2760.62 1374.47 2764.53 1371.75C2768.54 1368.92 2773.55 1367.5 2779.57 1367.5C2784.48 1367.5 2788.64 1368.33 2792.05 1370.01C2795.56 1371.69 2798.42 1373.76 2800.62 1376.21C2802.83 1378.53 2804.43 1380.86 2805.43 1383.18C2806.54 1385.51 2807.14 1387.38 2807.24 1388.8C2807.34 1390.09 2807.04 1391.12 2806.33 1391.9C2805.63 1392.67 2804.83 1393.06 2803.93 1393.06H2801.67C2800.87 1393.06 2800.22 1392.87 2799.72 1392.48C2799.22 1391.96 2798.77 1391.32 2798.36 1390.54C2797.36 1388.48 2796.16 1386.54 2794.76 1384.73C2793.35 1382.92 2791.45 1381.51 2789.04 1380.47C2786.74 1379.31 2783.58 1378.73 2779.57 1378.73C2773.55 1378.73 2769.09 1380.34 2766.18 1383.57C2763.28 1386.67 2761.82 1390.67 2761.82 1395.58C2761.82 1398.42 2762.42 1400.93 2763.63 1403.13C2764.83 1405.19 2767.09 1407.13 2770.4 1408.94C2773.7 1410.61 2778.52 1412.43 2784.83 1414.36C2791.25 1416.17 2796.31 1418.43 2800.02 1421.14C2803.73 1423.73 2806.33 1426.82 2807.84 1430.44C2809.44 1434.05 2810.24 1438.31 2810.24 1443.22C2810.24 1448.38 2809.09 1453.16 2806.79 1457.55C2804.58 1461.94 2801.22 1465.49 2796.71 1468.2C2792.3 1470.79 2786.84 1472.08 2780.32 1472.08ZM2855.83 1472.08C2850.62 1472.08 2846.11 1471.17 2842.3 1469.36C2838.59 1467.55 2835.53 1465.42 2833.13 1462.97C2830.72 1460.39 2828.92 1457.87 2827.72 1455.42C2826.61 1452.97 2826.01 1451.09 2825.91 1449.8C2825.81 1448.38 2826.16 1447.35 2826.96 1446.7C2827.77 1445.93 2828.52 1445.54 2829.22 1445.54H2831.48C2832.08 1445.54 2832.58 1445.67 2832.98 1445.93C2833.48 1446.19 2834.08 1446.9 2834.78 1448.06C2836.09 1450.25 2837.59 1452.39 2839.29 1454.45C2841 1456.39 2843.16 1457.94 2845.76 1459.1C2848.47 1460.26 2851.82 1460.84 2855.83 1460.84C2861.85 1460.84 2866.81 1459.36 2870.72 1456.39C2874.63 1453.42 2876.59 1449.03 2876.59 1443.22C2876.59 1439.61 2875.79 1436.7 2874.18 1434.5C2872.68 1432.31 2870.07 1430.37 2866.36 1428.69C2862.65 1427.02 2857.64 1425.27 2851.32 1423.46C2845.01 1421.53 2840.15 1419.2 2836.74 1416.49C2833.43 1413.78 2831.17 1410.68 2829.97 1407.2C2828.77 1403.58 2828.17 1399.71 2828.17 1395.58C2828.17 1391.06 2829.17 1386.67 2831.17 1382.41C2833.18 1378.02 2836.13 1374.47 2840.04 1371.75C2844.06 1368.92 2849.07 1367.5 2855.08 1367.5C2860 1367.5 2864.16 1368.33 2867.56 1370.01C2871.08 1371.69 2873.93 1373.76 2876.14 1376.21C2878.34 1378.53 2879.95 1380.86 2880.95 1383.18C2882.05 1385.51 2882.65 1387.38 2882.75 1388.8C2882.86 1390.09 2882.55 1391.12 2881.85 1391.9C2881.15 1392.67 2880.35 1393.06 2879.44 1393.06H2877.19C2876.39 1393.06 2875.73 1392.87 2875.23 1392.48C2874.74 1391.96 2874.28 1391.32 2873.88 1390.54C2872.88 1388.48 2871.68 1386.54 2870.27 1384.73C2868.87 1382.92 2866.96 1381.51 2864.56 1380.47C2862.26 1379.31 2859.1 1378.73 2855.08 1378.73C2849.07 1378.73 2844.61 1380.34 2841.7 1383.57C2838.8 1386.67 2837.34 1390.67 2837.34 1395.58C2837.34 1398.42 2837.94 1400.93 2839.14 1403.13C2840.35 1405.19 2842.6 1407.13 2845.91 1408.94C2849.22 1410.61 2854.03 1412.43 2860.35 1414.36C2866.76 1416.17 2871.83 1418.43 2875.54 1421.14C2879.25 1423.73 2881.85 1426.82 2883.35 1430.44C2884.96 1434.05 2885.76 1438.31 2885.76 1443.22C2885.76 1448.38 2884.61 1453.16 2882.3 1457.55C2880.1 1461.94 2876.74 1465.49 2872.23 1468.2C2867.82 1470.79 2862.35 1472.08 2855.83 1472.08ZM2935.56 1472.08C2925.84 1472.08 2918.12 1468.01 2912.41 1459.88C2906.69 1451.61 2903.43 1440.83 2902.63 1427.53C2902.53 1425.6 2902.48 1423.01 2902.48 1419.79C2902.48 1416.56 2902.53 1413.97 2902.63 1412.04C2903.13 1403.26 2904.74 1395.51 2907.44 1388.8C2910.15 1382.09 2913.86 1376.86 2918.57 1373.11C2923.39 1369.37 2929.05 1367.5 2935.56 1367.5C2942.58 1367.5 2948.55 1369.5 2953.46 1373.5C2958.37 1377.5 2962.13 1383.25 2964.74 1390.74C2967.45 1398.22 2968.8 1407.13 2968.8 1417.46V1420.37C2968.8 1421.66 2968.44 1422.69 2967.74 1423.46C2967.14 1424.24 2966.34 1424.63 2965.34 1424.63H2911.8C2911.8 1424.63 2911.8 1424.89 2911.8 1425.4C2911.8 1425.92 2911.8 1426.3 2911.8 1426.56C2912 1432.37 2913.05 1437.92 2914.96 1443.22C2916.87 1448.38 2919.57 1452.64 2923.08 1456C2926.59 1459.23 2930.75 1460.84 2935.56 1460.84C2939.88 1460.84 2943.43 1460 2946.24 1458.32C2949.15 1456.65 2951.45 1454.84 2953.16 1452.9C2954.86 1450.84 2955.96 1449.29 2956.47 1448.25C2957.37 1446.58 2958.07 1445.61 2958.57 1445.35C2959.07 1444.96 2959.87 1444.77 2960.98 1444.77H2963.38C2964.29 1444.77 2965.04 1445.16 2965.64 1445.93C2966.34 1446.58 2966.64 1447.48 2966.54 1448.64C2966.44 1450.45 2965.64 1452.71 2964.14 1455.42C2962.73 1458 2960.68 1460.58 2957.97 1463.17C2955.36 1465.75 2952.15 1467.88 2948.35 1469.56C2944.53 1471.24 2940.27 1472.08 2935.56 1472.08ZM2911.8 1413.78H2959.62V1413.01C2959.62 1406.55 2958.67 1400.74 2956.77 1395.58C2954.86 1390.41 2952.11 1386.35 2948.5 1383.38C2944.89 1380.28 2940.58 1378.73 2935.56 1378.73C2930.55 1378.73 2926.24 1380.28 2922.63 1383.38C2919.12 1386.35 2916.42 1390.41 2914.51 1395.58C2912.71 1400.74 2911.8 1406.55 2911.8 1413.01V1413.78ZM3014.95 1472.08C3009.73 1472.08 3005.22 1471.17 3001.41 1469.36C2997.7 1467.55 2994.64 1465.42 2992.24 1462.97C2989.83 1460.39 2988.03 1457.87 2986.83 1455.42C2985.72 1452.97 2985.12 1451.09 2985.02 1449.8C2984.92 1448.38 2985.27 1447.35 2986.07 1446.7C2986.88 1445.93 2987.63 1445.54 2988.33 1445.54H2990.59C2991.19 1445.54 2991.69 1445.67 2992.09 1445.93C2992.59 1446.19 2993.19 1446.9 2993.89 1448.06C2995.2 1450.25 2996.7 1452.39 2998.4 1454.45C3000.11 1456.39 3002.27 1457.94 3004.87 1459.1C3007.58 1460.26 3010.94 1460.84 3014.95 1460.84C3020.96 1460.84 3025.92 1459.36 3029.83 1456.39C3033.74 1453.42 3035.7 1449.03 3035.7 1443.22C3035.7 1439.61 3034.9 1436.7 3033.29 1434.5C3031.79 1432.31 3029.18 1430.37 3025.47 1428.69C3021.76 1427.02 3016.75 1425.27 3010.43 1423.46C3004.12 1421.53 2999.26 1419.2 2995.85 1416.49C2992.54 1413.78 2990.28 1410.68 2989.08 1407.2C2987.88 1403.58 2987.28 1399.71 2987.28 1395.58C2987.28 1391.06 2988.28 1386.67 2990.28 1382.41C2992.29 1378.02 2995.25 1374.47 2999.16 1371.75C3003.17 1368.92 3008.18 1367.5 3014.19 1367.5C3019.11 1367.5 3023.27 1368.33 3026.67 1370.01C3030.19 1371.69 3033.04 1373.76 3035.25 1376.21C3037.45 1378.53 3039.06 1380.86 3040.06 1383.18C3041.16 1385.51 3041.76 1387.38 3041.86 1388.8C3041.97 1390.09 3041.66 1391.12 3040.96 1391.9C3040.26 1392.67 3039.46 1393.06 3038.55 1393.06H3036.3C3035.5 1393.06 3034.85 1392.87 3034.34 1392.48C3033.85 1391.96 3033.39 1391.32 3032.99 1390.54C3031.99 1388.48 3030.79 1386.54 3029.38 1384.73C3027.98 1382.92 3026.07 1381.51 3023.67 1380.47C3021.36 1379.31 3018.21 1378.73 3014.19 1378.73C3008.18 1378.73 3003.72 1380.34 3000.81 1383.57C2997.91 1386.67 2996.45 1390.67 2996.45 1395.58C2996.45 1398.42 2997.05 1400.93 2998.25 1403.13C2999.46 1405.19 3001.71 1407.13 3005.02 1408.94C3008.33 1410.61 3013.14 1412.43 3019.46 1414.36C3025.87 1416.17 3030.94 1418.43 3034.65 1421.14C3038.36 1423.73 3040.96 1426.82 3042.46 1430.44C3044.07 1434.05 3044.87 1438.31 3044.87 1443.22C3044.87 1448.38 3043.72 1453.16 3041.41 1457.55C3039.21 1461.94 3035.85 1465.49 3031.34 1468.2C3026.93 1470.79 3021.46 1472.08 3014.95 1472.08Z" fill="white"/>
<path d="M1373 312C1373 312 1506.87 312.002 1544.28 312C1581.68 311.998 1638.73 344.571 1638.73 443.25C1638.73 541.929 1570.35 564.29 1570.35 564.29L1658 697H1591.13L1474.38 526.375V427.208L1528.03 506.444C1564.4 504.853 1580.55 493.806 1586.21 451.027C1591.88 408.25 1564.68 381.028 1544.28 378.597C1523.87 376.167 1443.4 378.597 1443.4 378.597V697H1373V312Z" fill="white"/>
</svg>
